<svg id="Layer_1" data-name="Layer 1" xmlns="http://www.w3.org/2000/svg" viewBox="0 0 200 200"><defs><style>.cls-1{fill:#231f20;}.cls-2{fill:none;}</style></defs><title>Untitled-1</title><path class="cls-1" d="M171.21,51.5a99.39,99.39,0,0,0,.07,43.92c-4.8.86-10.09,1.6-15.79,2.08a167.64,167.64,0,0,1-17.33.54,42.75,42.75,0,0,1-.11-48.8,128.44,128.44,0,0,1,33.16,2.25Z"/><path class="cls-1" d="M162.63,155a53.43,53.43,0,0,1,11.74,4.14v36.17H140.72a75.3,75.3,0,0,1-.86-22.63c.8-6.78,2.23-10.32,4.18-13.18a23.5,23.5,0,0,1,5.61-5.78A53,53,0,0,1,162.63,155Z"/><path class="cls-1" d="M159.11,37.26s1.8-3.29-3-.8c0,0-3,2.47-4.08,5.12h-5.65s-12.09-1.23-19.1-1.09-10.38,0-17.49,2.32a8.19,8.19,0,0,0-3.88,3.33,37.94,37.94,0,0,0-7.05,11.19c-2.47,6.4-4.38,16.68,0,32.3,0,0,3.43,7.86,5.79,9.92,0,0,2.42,3.79,4.69,4.55a43.72,43.72,0,0,0,11,2.47c5.24.45,9,.19,17.18-.3l9.42-.71h5s2.56,4.34,5.19,5.6,2.52-.65,1.46-2.27l-2.27-3.42h39.05v41.37c-6.23-.19-14.43-.37-24-.35-6.65,0-13.81,0-22.22.4-8.72.39-20.64,1.26-35,3.34a19.18,19.18,0,0,0-10.61,4.68c-1.86,1.69-4.52,4.9-6.24,14.15a69.92,69.92,0,0,0,.3,26.3H23.67a19,19,0,0,1-19-19V23.67a19,19,0,0,1,19-19H176.33a19,19,0,0,1,19,19V41.58H156.46Z"/><path class="cls-2" d="M171.28,95.43c-4.8.86-10.09,1.6-15.79,2.08a167.64,167.64,0,0,1-17.33.54,42.75,42.75,0,0,1-.11-48.8,128.44,128.44,0,0,1,33.16,2.25,99.39,99.39,0,0,0,.07,43.92Z"/><path class="cls-2" d="M174.38,159.16v36.17H140.72a75.3,75.3,0,0,1-.86-22.63c.8-6.78,2.23-10.32,4.18-13.18a23.5,23.5,0,0,1,5.61-5.78,53.19,53.19,0,0,1,24.72,5.42Z"/><path class="cls-2" d="M162.63,155a53.43,53.43,0,0,1,11.74,4.14v36.17H140.72a75.3,75.3,0,0,1-.86-22.63c.8-6.78,2.23-10.32,4.18-13.18a23.5,23.5,0,0,1,5.61-5.78A53,53,0,0,1,162.63,155Z"/><path class="cls-2" d="M195.33,105.44H156.28l2.27,3.42c1.05,1.62,1.16,3.53-1.46,2.27s-5.19-5.6-5.19-5.6h-5l-9.42.71c-8.21.5-11.95.75-17.18.3a43.71,43.71,0,0,1-11-2.47c-2.27-.76-4.69-4.55-4.69-4.55-2.36-2.06-5.79-9.92-5.79-9.92-4.38-15.62-2.47-25.9,0-32.3a37.94,37.94,0,0,1,7.05-11.19,8.19,8.19,0,0,1,3.88-3.33c7.11-2.37,10.49-2.16,17.49-2.32s19.1,1.09,19.1,1.09H152c1-2.65,4.08-5.12,4.08-5.12,4.84-2.49,3,.8,3,.8l-2.65,4.32h38.87"/></svg>